<?xml version="1.0" standalone="no"?>
<!DOCTYPE svg PUBLIC "-//W3C//DTD SVG 20010904//EN"
 "http://www.w3.org/TR/2001/REC-SVG-20010904/DTD/svg10.dtd">
<svg version="1.0" xmlns="http://www.w3.org/2000/svg"
 width="1024.000000pt" height="1024.000000pt" viewBox="0 0 1024.000000 1024.000000"
 preserveAspectRatio="xMidYMid meet">
<metadata>
Created by potrace 1.14, written by Peter Selinger 2001-2017
</metadata>
<g transform="translate(0.000000,1024.000000) scale(0.100000,-0.100000)"
fill="#000000" stroke="none">
<path d="M5586 9873 c-1 -1 -58 -5 -126 -8 -69 -4 -141 -8 -160 -10 -19 -2
-55 -6 -80 -9 -25 -3 -61 -8 -80 -11 -19 -3 -53 -7 -75 -9 -61 -7 -116 -16
-155 -26 -19 -5 -52 -11 -72 -14 -45 -7 -79 -15 -213 -51 -55 -14 -109 -28
-120 -30 -50 -11 -374 -121 -465 -158 -14 -6 -28 -11 -32 -12 -5 -2 -9 -3 -10
-5 -2 -1 -10 -3 -18 -5 -8 -2 -37 -13 -65 -25 -27 -12 -59 -25 -70 -30 -137
-57 -122 -50 -290 -131 -82 -40 -153 -72 -157 -71 -5 1 -8 -2 -8 -8 0 -5 -4
-10 -9 -10 -5 0 -53 -25 -106 -55 -54 -30 -101 -55 -106 -55 -5 0 -9 -3 -9 -8
0 -4 -17 -16 -37 -27 -21 -11 -40 -22 -43 -25 -10 -10 -101 -70 -106 -70 -7 0
-87 -62 -96 -75 -4 -5 -8 -7 -8 -2 0 4 -9 -1 -19 -10 -11 -10 -26 -23 -33 -28
-106 -83 -128 -101 -128 -107 0 -5 -5 -8 -10 -8 -28 0 -447 -422 -509 -513 -8
-12 -18 -24 -22 -27 -7 -5 -25 -27 -87 -107 -9 -13 -29 -38 -44 -55 -15 -18
-28 -39 -28 -45 0 -7 -4 -13 -8 -13 -9 0 -74 -90 -186 -261 -41 -63 -79 -119
-85 -125 -5 -6 -16 -24 -25 -40 -9 -16 -25 -42 -36 -59 -10 -16 -31 -51 -46
-77 -15 -27 -31 -48 -36 -48 -4 0 -8 -6 -8 -14 0 -7 -16 -40 -36 -72 -29 -48
-151 -291 -184 -369 -15 -35 -39 -95 -41 -103 0 -4 -6 -16 -11 -26 -10 -19
-76 -198 -83 -226 -2 -8 -13 -43 -24 -78 -23 -69 -43 -139 -47 -161 -2 -12
-13 -52 -19 -71 -1 -3 -5 -23 -10 -45 -13 -56 -12 -55 -15 -57 -1 -2 -3 -12
-4 -23 -2 -11 -6 -33 -10 -50 -3 -16 -8 -41 -11 -55 -3 -14 -7 -36 -10 -50 -2
-14 -7 -38 -9 -55 -3 -16 -12 -74 -21 -128 -14 -89 -22 -162 -29 -267 -1 -20
-5 -41 -10 -48 -4 -7 -2 -12 4 -12 6 0 8 -5 4 -12 -5 -7 -9 -42 -11 -78 -1
-36 -4 -91 -6 -122 -2 -32 1 -58 6 -58 6 0 6 -5 0 -12 -16 -22 -3 -404 21
-623 9 -81 16 -141 20 -170 13 -98 19 -131 22 -136 1 -3 6 -28 10 -55 5 -41
44 -232 60 -297 12 -51 15 -64 20 -84 2 -12 8 -33 13 -45 5 -13 9 -27 10 -33
12 -78 152 -493 210 -620 10 -22 29 -65 42 -95 35 -85 190 -387 237 -464 23
-37 42 -72 42 -77 0 -5 5 -9 10 -9 6 0 10 -7 10 -15 0 -8 5 -15 10 -15 6 0 10
-5 10 -11 0 -25 293 -429 311 -429 5 0 9 -5 9 -11 0 -6 6 -16 13 -24 6 -7 37
-41 67 -75 101 -114 293 -302 390 -381 25 -20 56 -46 70 -58 38 -32 41 -34
105 -81 33 -25 62 -47 65 -50 40 -40 394 -262 558 -350 26 -14 67 -36 92 -50
25 -13 51 -25 58 -26 8 -1 22 -10 31 -18 10 -9 20 -16 24 -16 3 0 34 -13 69
-29 124 -58 254 -113 343 -147 49 -19 98 -39 107 -44 10 -6 25 -10 33 -10 8 0
23 -4 33 -10 16 -9 220 -78 252 -85 8 -2 29 -8 45 -15 17 -6 31 -11 33 -11 1
1 3 1 5 0 1 0 9 -2 17 -4 8 -2 42 -11 75 -20 83 -22 260 -63 320 -75 28 -5 61
-12 75 -15 14 -3 44 -8 67 -10 24 -2 47 -6 51 -9 4 -3 33 -8 63 -11 30 -3 68
-8 84 -10 40 -4 157 -16 225 -21 145 -12 516 -4 542 12 4 3 8 0 8 -7 0 -8 4
-8 13 -2 6 6 19 10 27 10 17 1 101 12 145 20 17 3 39 6 50 8 44 4 134 21 138
25 1 1 11 4 22 5 45 7 100 17 106 21 3 2 20 6 37 9 25 4 184 45 275 70 40 11
63 17 75 17 6 1 12 5 12 10 0 5 4 7 10 3 5 -3 17 -2 27 4 10 5 45 16 78 26 33
9 123 39 200 67 77 27 145 50 150 52 6 2 19 7 30 11 107 42 174 69 195 78 14
5 28 10 33 9 4 -1 7 3 7 10 0 6 3 9 6 6 5 -6 50 13 199 81 33 15 79 36 102 47
24 10 43 22 43 27 0 4 6 7 14 7 7 0 51 20 97 45 46 25 100 53 119 63 19 9 37
20 38 25 2 4 8 7 12 7 5 0 60 32 122 70 62 39 122 76 132 83 11 7 25 16 30 20
6 4 45 32 86 62 205 150 391 347 446 472 31 70 27 132 -15 217 -18 36 -38 71
-44 78 -7 7 -19 23 -27 34 -42 60 -249 276 -337 351 -12 11 -48 43 -81 73 -32
30 -72 66 -88 80 -30 25 -170 147 -190 165 -30 27 -137 117 -218 185 -9 8 -33
29 -52 47 -19 17 -34 28 -34 25 0 -4 -4 -2 -8 4 -4 6 -41 39 -82 73 -41 34
-95 79 -120 100 -25 21 -99 83 -165 137 -66 55 -129 107 -140 116 -11 9 -49
41 -85 70 -36 29 -70 57 -76 63 -7 5 -29 24 -50 42 -22 17 -75 61 -119 98 -73
60 -122 101 -179 147 -78 64 -125 103 -150 126 -16 15 -45 39 -64 54 -19 15
-58 49 -87 75 -29 27 -85 77 -125 113 -92 82 -138 125 -275 260 -324 317 -491
532 -469 603 7 23 91 153 119 183 5 6 25 29 43 52 49 60 97 114 220 251 194
215 756 777 1119 1117 67 63 238 222 283 264 15 14 72 66 126 116 55 50 128
118 163 150 35 33 83 77 106 99 23 22 90 85 149 140 219 205 519 508 591 598
17 21 38 48 49 60 59 71 133 218 120 239 -3 5 0 8 6 8 6 0 8 5 5 11 -4 6 -8
23 -10 37 -3 33 -8 55 -15 62 -3 3 -21 26 -39 51 -19 25 -53 59 -75 77 -23 17
-53 42 -68 55 -15 13 -39 32 -54 43 -15 10 -34 26 -43 34 -9 8 -33 26 -54 40
-20 14 -37 28 -37 33 0 4 -6 7 -14 7 -7 0 -19 6 -25 14 -15 18 -182 133 -228
157 -13 7 -23 15 -23 19 0 4 -8 10 -17 14 -10 3 -38 19 -63 36 -25 17 -53 33
-62 36 -10 4 -18 10 -18 15 0 5 -9 9 -19 9 -11 0 -21 4 -23 9 -3 10 -43 33
-168 97 -41 22 -81 45 -88 52 -7 6 -22 12 -32 12 -10 0 -22 5 -25 11 -6 8 -38
26 -65 34 -3 1 -41 18 -85 39 -125 59 -455 187 -515 201 -8 2 -28 8 -43 14
-16 6 -33 9 -38 5 -5 -3 -9 0 -9 5 0 6 -3 10 -7 9 -10 -2 -64 13 -78 20 -5 4
-16 7 -25 8 -8 1 -37 7 -65 14 -27 6 -57 13 -65 15 -8 2 -35 8 -60 14 -25 7
-56 14 -70 16 -14 3 -36 8 -50 11 -14 3 -38 8 -55 10 -16 2 -41 6 -55 9 -14 3
-43 8 -65 10 -22 3 -56 7 -75 11 -19 3 -55 7 -80 9 -87 8 -118 13 -129 19 -6
4 -11 2 -11 -5 0 -7 -5 -8 -12 -3 -7 5 -57 9 -110 9 -54 0 -98 2 -98 5 0 5
-209 8 -214 3z"/>
</g>
</svg>
