<?xml version="1.0" encoding="UTF-8" standalone="no"?>
<svg
   version="1.0"
   width="48.000000pt"
   height="45.000000pt"
   viewBox="0 0 48.000000 45.000000"
   preserveAspectRatio="xMidYMid meet"
   id="svg6"
   sodipodi:docname="Logo.svg"
   inkscape:version="1.1.1 (3bf5ae0d25, 2021-09-20)"
   xmlns:inkscape="http://www.inkscape.org/namespaces/inkscape"
   xmlns:sodipodi="http://sodipodi.sourceforge.net/DTD/sodipodi-0.dtd"
   xmlns="http://www.w3.org/2000/svg"
   xmlns:svg="http://www.w3.org/2000/svg">
  <defs
     id="defs10" />
  <sodipodi:namedview
     id="namedview8"
     pagecolor="#505050"
     bordercolor="#ffffff"
     borderopacity="1"
     inkscape:pageshadow="0"
     inkscape:pageopacity="0"
     inkscape:pagecheckerboard="1"
     inkscape:document-units="pt"
     showgrid="false"
     inkscape:zoom="7.25"
     inkscape:cx="32"
     inkscape:cy="19.034483"
     inkscape:window-width="1366"
     inkscape:window-height="705"
     inkscape:window-x="0"
     inkscape:window-y="0"
     inkscape:window-maximized="1"
     inkscape:current-layer="svg6" />
  <g
     transform="translate(0.000000,45.000000) scale(0.100000,-0.100000)"
     fill="#000000"
     stroke="none"
     id="g4"
     style="fill:#ff001b;fill-opacity:1">
    <path
       d="M196 435 c-56 -20 -87 -45 -120 -99 -52 -82 -35 -207 36 -273 43 -40 116 -66 169 -60 51 6 117 35 138 61 14 17 12 19 -96 108 -29 24 -52 48 -53 55 0 6 35 43 78 83 75 69 76 71 57 86 -64 51 -138 65 -209 39z"
       id="path2"
       style="fill:#ff001b;fill-opacity:1" />
  </g>
</svg>
